<svg width="160" height="160" viewBox="0 0 160 160" fill="none" xmlns="http://www.w3.org/2000/svg">
<g clip-path="url(#clip0_133_58146)">
<rect x="40" y="50" width="10" height="10" fill="#A6FFB5"/>
<rect x="150" y="50" width="10" height="10" fill="#A6FFB5"/>
<rect x="20" y="40" width="10" height="10" fill="#A6FFB5"/>
<rect x="130" y="40" width="10" height="10" fill="#A6FFB5"/>
<rect x="20" y="80" width="10" height="10" fill="#A6FFB5"/>
<rect x="130" y="80" width="10" height="10" fill="#A6FFB5"/>
<rect y="50" width="10" height="10" fill="#A6FFB5"/>
<rect x="110" y="50" width="10" height="10" fill="#A6FFB5"/>
<rect x="10" y="40" width="10" height="10" fill="#A6FFB5"/>
<rect x="120" y="40" width="10" height="10" fill="#A6FFB5"/>
<rect x="10" y="80" width="10" height="10" fill="#A6FFB5"/>
<rect x="120" y="80" width="10" height="10" fill="#A6FFB5"/>
<rect x="40" y="60" width="10" height="10" fill="#A6FFB5"/>
<rect x="150" y="60" width="10" height="10" fill="#A6FFB5"/>
<rect x="20" y="60" width="10" height="10" fill="#1ABEFF"/>
<rect x="130" y="60" width="10" height="10" fill="#1ABEFF"/>
<rect y="60" width="10" height="10" fill="#A6FFB5"/>
<rect x="110" y="60" width="10" height="10" fill="#A6FFB5"/>
<rect x="30" y="40" width="10" height="10" fill="#A6FFB5"/>
<rect x="140" y="40" width="10" height="10" fill="#A6FFB5"/>
<rect x="30" y="80" width="10" height="10" fill="#A6FFB5"/>
<rect x="140" y="80" width="10" height="10" fill="#A6FFB5"/>
<rect x="40" y="70" width="10" height="10" fill="#A6FFB5"/>
<rect x="150" y="70" width="10" height="10" fill="#A6FFB5"/>
<rect x="40" y="120" width="10" height="10" fill="#A6FFB5"/>
<rect x="60" y="70" width="10" height="10" fill="#A6FFB5"/>
<rect x="60" y="120" width="10" height="10" fill="#A6FFB5"/>
<rect x="50" y="150" width="10" height="10" fill="#A6FFB5"/>
<rect x="50" y="70" width="10" height="10" fill="#A6FFB5"/>
<rect y="70" width="10" height="10" fill="#A6FFB5"/>
<rect x="110" y="70" width="10" height="10" fill="#A6FFB5"/>
<rect x="50" y="140" width="10" height="10" fill="#A6FFB5"/>
<rect x="50" y="120" width="10" height="10" fill="#A6FFB5"/>
<rect x="40" y="150" width="10" height="10" fill="#A6FFB5"/>
<rect x="30" y="110" width="10" height="10" fill="#A6FFB5"/>
<rect x="30" y="90" width="10" height="10" fill="#A6FFB5"/>
<rect x="50" y="110" width="10" height="10" fill="#1ABEFF"/>
<rect x="100" y="110" width="10" height="10" fill="#1ABEFF"/>
<rect x="70" y="70" width="10" height="10" fill="#A6FFB5"/>
<rect x="30" y="120" width="10" height="10" fill="#A6FFB5"/>
<rect x="70" y="120" width="10" height="10" fill="#A6FFB5"/>
<rect x="30" y="100" width="10" height="10" fill="#A6FFB5"/>
<rect width="10" height="10" transform="matrix(-1 0 0 1 120 120)" fill="#A6FFB5"/>
<rect width="10" height="10" transform="matrix(-1 0 0 1 100 70)" fill="#A6FFB5"/>
<rect width="10" height="10" transform="matrix(-1 0 0 1 110 70)" fill="#A6FFB5"/>
<rect width="10" height="10" transform="matrix(-1 0 0 1 100 120)" fill="#A6FFB5"/>
<rect width="10" height="10" transform="matrix(-1 0 0 1 110 150)" fill="#A6FFB5"/>
<rect width="10" height="10" transform="matrix(-1 0 0 1 110 140)" fill="#A6FFB5"/>
<rect width="10" height="10" transform="matrix(-1 0 0 1 110 120)" fill="#A6FFB5"/>
<rect width="10" height="10" transform="matrix(-1 0 0 1 120 150)" fill="#A6FFB5"/>
<rect width="10" height="10" transform="matrix(-1 0 0 1 130 110)" fill="#A6FFB5"/>
<rect width="10" height="10" transform="matrix(-1 0 0 1 130 90)" fill="#A6FFB5"/>
<rect width="10" height="10" transform="matrix(-1 0 0 1 90 70)" fill="#A6FFB5"/>
<rect x="40" y="80" width="10" height="10" fill="#A6FFB5"/>
<rect x="60" y="80" width="10" height="10" fill="#A6FFB5"/>
<rect x="50" y="80" width="10" height="10" fill="#A6FFB5"/>
<rect x="110" y="80" width="10" height="10" fill="#A6FFB5"/>
<rect x="70" y="80" width="10" height="10" fill="#A6FFB5"/>
<rect width="10" height="10" transform="matrix(-1 0 0 1 100 80)" fill="#A6FFB5"/>
<rect width="10" height="10" transform="matrix(-1 0 0 1 110 80)" fill="#A6FFB5"/>
<rect width="10" height="10" transform="matrix(-1 0 0 1 90 80)" fill="#A6FFB5"/>
<rect x="40" y="80" width="10" height="10" fill="#A6FFB5"/>
<rect x="60" y="80" width="10" height="10" fill="#A6FFB5"/>
<rect x="50" y="80" width="10" height="10" fill="#A6FFB5"/>
<rect x="110" y="80" width="10" height="10" fill="#A6FFB5"/>
<rect x="70" y="80" width="10" height="10" fill="#A6FFB5"/>
<rect width="10" height="10" transform="matrix(-1 0 0 1 100 80)" fill="#A6FFB5"/>
<rect width="10" height="10" transform="matrix(-1 0 0 1 110 80)" fill="#A6FFB5"/>
<rect width="10" height="10" transform="matrix(-1 0 0 1 90 80)" fill="#A6FFB5"/>
<rect width="10" height="10" transform="matrix(-1 0 0 1 130 120)" fill="#A6FFB5"/>
<rect width="10" height="10" transform="matrix(-1 0 0 1 90 120)" fill="#A6FFB5"/>
<rect x="40" y="130" width="10" height="10" fill="#A6FFB5"/>
<rect x="60" y="130" width="10" height="10" fill="#A6FFB5"/>
<rect x="50" y="130" width="10" height="10" fill="#A6FFB5"/>
<rect x="20" y="150" width="10" height="10" fill="#A6FFB5"/>
<rect x="20" y="140" width="10" height="10" fill="#A6FFB5"/>
<rect x="10" y="150" width="10" height="10" fill="#A6FFB5"/>
<rect x="30" y="130" width="10" height="10" fill="#A6FFB5"/>
<rect x="40" y="130" width="10" height="10" fill="#A6FFB5"/>
<rect x="30" y="130" width="10" height="10" fill="#A6FFB5"/>
<rect x="20" y="130" width="10" height="10" fill="#A6FFB5"/>
<rect x="70" y="130" width="10" height="10" fill="#A6FFB5"/>
<rect width="10" height="10" transform="matrix(-1 0 0 1 120 130)" fill="#A6FFB5"/>
<rect width="10" height="10" transform="matrix(-1 0 0 1 100 130)" fill="#A6FFB5"/>
<rect width="10" height="10" transform="matrix(-1 0 0 1 110 130)" fill="#A6FFB5"/>
<rect width="10" height="10" transform="matrix(-1 0 0 1 130 130)" fill="#A6FFB5"/>
<rect width="10" height="10" transform="matrix(-1 0 0 1 140 130)" fill="#A6FFB5"/>
<rect width="10" height="10" transform="matrix(-1 0 0 1 90 130)" fill="#A6FFB5"/>
<rect width="10" height="10" transform="matrix(-1 0 0 1 130 100)" fill="#A6FFB5"/>
<rect width="10" height="10" transform="matrix(-1 0 0 1 140 150)" fill="#A6FFB5"/>
<rect width="10" height="10" transform="matrix(-1 0 0 1 140 140)" fill="#A6FFB5"/>
<rect width="10" height="10" transform="matrix(-1 0 0 1 150 150)" fill="#A6FFB5"/>
</g>
<defs>
<clipPath id="clip0_133_58146">
<rect width="160" height="160" fill="white"/>
</clipPath>
</defs>
</svg>
