<svg width="160" height="160" viewBox="0 0 160 160" fill="none" xmlns="http://www.w3.org/2000/svg">
<g clip-path="url(#clip0_133_58405)">
<rect x="60" y="10" width="10" height="10" fill="#FF9F9F"/>
<rect x="130" y="10" width="10" height="10" fill="#FF9F9F"/>
<rect x="40" width="10" height="10" fill="#FF9F9F"/>
<rect x="110" width="10" height="10" fill="#FF9F9F"/>
<rect x="40" y="40" width="10" height="10" fill="#FF9F9F"/>
<rect x="110" y="40" width="10" height="10" fill="#FF9F9F"/>
<rect x="20" y="10" width="10" height="10" fill="#FF9F9F"/>
<rect x="90" y="10" width="10" height="10" fill="#FF9F9F"/>
<rect x="30" width="10" height="10" fill="#FF9F9F"/>
<rect x="100" width="10" height="10" fill="#FF9F9F"/>
<rect x="30" y="40" width="10" height="10" fill="#FF9F9F"/>
<rect x="100" y="40" width="10" height="10" fill="#FF9F9F"/>
<rect x="60" y="20" width="10" height="10" fill="#FF9F9F"/>
<rect x="130" y="20" width="10" height="10" fill="#FF9F9F"/>
<rect x="40" y="20" width="10" height="10" fill="#A6FFB5"/>
<rect x="110" y="20" width="10" height="10" fill="#A6FFB5"/>
<rect x="20" y="20" width="10" height="10" fill="#FF9F9F"/>
<rect x="90" y="20" width="10" height="10" fill="#FF9F9F"/>
<rect x="50" width="10" height="10" fill="#FF9F9F"/>
<rect x="120" width="10" height="10" fill="#FF9F9F"/>
<rect x="50" y="40" width="10" height="10" fill="#FF9F9F"/>
<rect x="120" y="40" width="10" height="10" fill="#FF9F9F"/>
<rect x="60" y="30" width="10" height="10" fill="#FF9F9F"/>
<rect x="130" y="30" width="10" height="10" fill="#FF9F9F"/>
<rect x="60" y="70" width="10" height="10" fill="#FF9F9F"/>
<rect x="60" y="130" width="10" height="10" fill="#FF9F9F"/>
<rect x="60" y="140" width="10" height="10" fill="#FF9F9F"/>
<rect x="50" y="70" width="10" height="10" fill="#FF9F9F"/>
<rect x="50" y="90" width="10" height="10" fill="#FF9F9F"/>
<rect x="50" y="100" width="10" height="10" fill="#FF9F9F"/>
<rect x="50" y="120" width="10" height="10" fill="#FF9F9F"/>
<rect x="50" y="130" width="10" height="10" fill="#FF9F9F"/>
<rect x="20" y="30" width="10" height="10" fill="#FF9F9F"/>
<rect x="50" y="60" width="10" height="10" fill="#FF9F9F"/>
<rect x="50" y="50" width="10" height="10" fill="#FF9F9F"/>
<rect width="10" height="10" transform="matrix(-1 0 0 1 110 60)" fill="#FF9F9F"/>
<rect width="10" height="10" transform="matrix(-1 0 0 1 110 50)" fill="#FF9F9F"/>
<rect x="90" y="30" width="10" height="10" fill="#FF9F9F"/>
<rect x="70" y="70" width="10" height="10" fill="#FF9F9F"/>
<rect width="10" height="10" transform="matrix(-1 0 0 1 100 70)" fill="#FF9F9F"/>
<rect width="10" height="10" transform="matrix(-1 0 0 1 100 130)" fill="#FF9F9F"/>
<rect width="10" height="10" transform="matrix(-1 0 0 1 110 70)" fill="#FF9F9F"/>
<rect width="10" height="10" transform="matrix(-1 0 0 1 110 90)" fill="#FF9F9F"/>
<rect width="10" height="10" transform="matrix(-1 0 0 1 110 100)" fill="#FF9F9F"/>
<rect x="50" y="110" width="10" height="10" fill="#FF9F9F"/>
<rect width="10" height="10" transform="matrix(-1 0 0 1 110 110)" fill="#FF9F9F"/>
<rect width="10" height="10" transform="matrix(-1 0 0 1 110 120)" fill="#FF9F9F"/>
<rect width="10" height="10" transform="matrix(-1 0 0 1 110 130)" fill="#FF9F9F"/>
<rect width="10" height="10" transform="matrix(-1 0 0 1 100 140)" fill="#FF9F9F"/>
<rect width="10" height="10" transform="matrix(-1 0 0 1 90 70)" fill="#FF9F9F"/>
<rect x="60" y="80" width="10" height="10" fill="#FF9F9F"/>
<rect x="50" y="80" width="10" height="10" fill="#FF9F9F"/>
<rect x="70" y="80" width="10" height="10" fill="#FF9F9F"/>
<rect width="10" height="10" transform="matrix(-1 0 0 1 100 80)" fill="#FF9F9F"/>
<rect width="10" height="10" transform="matrix(-1 0 0 1 110 80)" fill="#FF9F9F"/>
<rect width="10" height="10" transform="matrix(-1 0 0 1 90 80)" fill="#FF9F9F"/>
<rect x="70" y="90" width="10" height="10" fill="#FF9F9F"/>
<rect width="10" height="10" transform="matrix(-1 0 0 1 90 90)" fill="#FF9F9F"/>
<rect x="60" y="80" width="10" height="10" fill="#FF9F9F"/>
<rect x="50" y="80" width="10" height="10" fill="#FF9F9F"/>
<rect width="10" height="10" transform="matrix(-1 0 0 1 100 80)" fill="#FF9F9F"/>
<rect width="10" height="10" transform="matrix(-1 0 0 1 110 80)" fill="#FF9F9F"/>
<rect x="40" y="70" width="10" height="10" fill="#FF9F9F"/>
<rect width="10" height="10" transform="matrix(-1 0 0 1 120 70)" fill="#FF9F9F"/>
<rect x="60" y="70" width="10" height="10" fill="#FF9F9F"/>
<rect x="50" y="70" width="10" height="10" fill="#FF9F9F"/>
<rect x="30" y="70" width="10" height="10" fill="#FF9F9F"/>
<rect x="20" y="70" width="10" height="10" fill="#FF9F9F"/>
<rect x="10" y="80" width="10" height="10" fill="#A6FFB5"/>
<rect x="20" y="110" width="10" height="10" fill="#A6FFB5"/>
<rect x="10" y="100" width="10" height="10" fill="#A6FFB5"/>
<rect y="110" width="10" height="10" fill="#A6FFB5"/>
<rect x="150" y="110" width="10" height="10" fill="#A6FFB5"/>
<rect x="140" y="100" width="10" height="10" fill="#A6FFB5"/>
<rect x="130" y="110" width="10" height="10" fill="#A6FFB5"/>
<rect x="20" y="120" width="10" height="10" fill="#A6FFB5"/>
<rect y="120" width="10" height="10" fill="#A6FFB5"/>
<rect x="150" y="120" width="10" height="10" fill="#A6FFB5"/>
<rect x="130" y="120" width="10" height="10" fill="#A6FFB5"/>
<rect x="20" y="130" width="10" height="10" fill="#A6FFB5"/>
<rect y="130" width="10" height="10" fill="#A6FFB5"/>
<rect x="150" y="130" width="10" height="10" fill="#A6FFB5"/>
<rect x="130" y="130" width="10" height="10" fill="#A6FFB5"/>
<rect x="10" y="90" width="10" height="10" fill="#A6FFB5"/>
<rect width="10" height="10" transform="matrix(-1 0 0 1 130 70)" fill="#FF9F9F"/>
<rect width="10" height="10" transform="matrix(-1 0 0 1 140 70)" fill="#FF9F9F"/>
<rect width="10" height="10" transform="matrix(-1 0 0 1 150 80)" fill="#A6FFB5"/>
<rect width="10" height="10" transform="matrix(-1 0 0 1 150 90)" fill="#A6FFB5"/>
<rect x="70" y="130" width="10" height="10" fill="#FF9F9F"/>
<rect x="70" y="150" width="10" height="10" fill="#FF9F9F"/>
<rect width="10" height="10" transform="matrix(-1 0 0 1 90 130)" fill="#FF9F9F"/>
<rect x="60" y="120" width="10" height="10" fill="#FF9F9F"/>
<rect width="10" height="10" transform="matrix(-1 0 0 1 100 120)" fill="#FF9F9F"/>
<rect x="60" y="110" width="10" height="10" fill="#FF9F9F"/>
<rect width="10" height="10" transform="matrix(-1 0 0 1 100 110)" fill="#FF9F9F"/>
<rect x="70" y="120" width="10" height="10" fill="#FF9F9F"/>
<rect width="10" height="10" transform="matrix(-1 0 0 1 90 120)" fill="#FF9F9F"/>
<rect x="70" y="140" width="10" height="10" fill="#FF9F9F"/>
<rect width="10" height="10" transform="matrix(-1 0 0 1 90 140)" fill="#FF9F9F"/>
<rect width="10" height="10" transform="matrix(-1 0 0 1 90 150)" fill="#FF9F9F"/>
</g>
<defs>
<clipPath id="clip0_133_58405">
<rect width="160" height="160" fill="white"/>
</clipPath>
</defs>
</svg>
